<svg viewBox="0 0 190 35" xmlns="http://www.w3.org/2000/svg" xmlns:xlink="http://www.w3.org/1999/xlink" width="190.000000" height="35.000000" fill="none">
	<defs>
		<clipPath id="clipPath_0">
			<rect width="142.000000" height="22.000000" x="16.000000" y="6.000000" fill="rgb(255,255,255)" />
		</clipPath>
	</defs>
	<rect id="Frame 240" width="190.000000" height="35.000000" x="0.000000" y="0.000000" />
	<g id="Frame 85" customFrame="url(#clipPath_0)">
		<rect id="Frame 85" width="142.000000" height="22.000000" x="16.000000" y="6.000000" />
		<circle id="Ellipse 3" cx="24.5" cy="17" r="8" stroke="rgb(51,51,51)" stroke-width="1" />
		<path id="Simple" d="M42.78 23.55C43.86 23.55 44.7 23.3567 45.3 22.97C45.9 22.57 46.2 21.93 46.2 21.05C46.2 20.5433 46.1 20.1233 45.9 19.79C45.7133 19.4433 45.46 19.1567 45.14 18.93C44.82 18.69 44.4533 18.49 44.04 18.33C43.6267 18.1567 43.1933 17.9767 42.74 17.79C42.1667 17.5633 41.6533 17.33 41.2 17.09C40.7467 16.85 40.36 16.5833 40.04 16.29C39.72 15.9833 39.4733 15.6367 39.3 15.25C39.14 14.8633 39.06 14.41 39.06 13.89C39.06 12.7033 39.4533 11.8033 40.24 11.19C41.0267 10.5767 42.12 10.27 43.52 10.27C43.8933 10.27 44.26 10.2967 44.62 10.35C44.98 10.4033 45.3133 10.4767 45.62 10.57C45.94 10.65 46.2267 10.7433 46.48 10.85C46.7467 10.9567 46.9667 11.07 47.14 11.19L46.66 12.33C46.2733 12.0633 45.8 11.85 45.24 11.69C44.6933 11.53 44.1 11.45 43.46 11.45C43.02 11.45 42.6133 11.4967 42.24 11.59C41.88 11.67 41.5667 11.81 41.3 12.01C41.0333 12.1967 40.82 12.4367 40.66 12.73C40.5133 13.0233 40.44 13.3767 40.44 13.79C40.44 14.2167 40.52 14.5767 40.68 14.87C40.84 15.1633 41.06 15.4167 41.34 15.63C41.6333 15.8433 41.9733 16.0367 42.36 16.21C42.7467 16.3833 43.1667 16.5633 43.62 16.75C44.1667 16.9767 44.68 17.2033 45.16 17.43C45.6533 17.6567 46.08 17.9233 46.44 18.23C46.8 18.5367 47.0867 18.91 47.3 19.35C47.5133 19.79 47.62 20.33 47.62 20.97C47.62 22.2233 47.18 23.1633 46.3 23.79C45.4333 24.4167 44.2533 24.73 42.76 24.73C42.2267 24.73 41.74 24.6967 41.3 24.63C40.86 24.5633 40.4667 24.4833 40.12 24.39C39.7733 24.2833 39.48 24.1767 39.24 24.07C39 23.9633 38.8133 23.87 38.68 23.79L39.12 22.61C39.2533 22.69 39.4333 22.7833 39.66 22.89C39.8867 22.9967 40.1533 23.1033 40.46 23.21C40.7667 23.3033 41.1133 23.3833 41.5 23.45C41.8867 23.5167 42.3133 23.55 42.78 23.55ZM51.352 24.43L50.052 24.43L50.052 14.09L51.352 14.09L51.352 24.43ZM51.652 10.97C51.652 11.2767 51.5587 11.5233 51.372 11.71C51.1854 11.8833 50.9587 11.97 50.692 11.97C50.4254 11.97 50.1987 11.8833 50.012 11.71C49.8254 11.5233 49.732 11.2767 49.732 10.97C49.732 10.6633 49.8254 10.4233 50.012 10.25C50.1987 10.0633 50.4254 9.97 50.692 9.97C50.9587 9.97 51.1854 10.0633 51.372 10.25C51.5587 10.4233 51.652 10.6633 51.652 10.97ZM54.7981 14.45C55.1848 14.3433 55.6848 14.2233 56.2981 14.09C56.9248 13.9567 57.7315 13.89 58.7181 13.89C60.0248 13.89 60.9715 14.27 61.5581 15.03C61.6248 14.9767 61.7515 14.89 61.9381 14.77C62.1381 14.6367 62.3848 14.5033 62.6781 14.37C62.9715 14.2367 63.3115 14.1233 63.6981 14.03C64.0981 13.9367 64.5381 13.89 65.0181 13.89C65.8048 13.89 66.4381 14.01 66.9181 14.25C67.4115 14.4767 67.7915 14.8033 68.0581 15.23C68.3248 15.6433 68.5048 16.1433 68.5981 16.73C68.6915 17.3167 68.7381 17.9567 68.7381 18.65L68.7381 24.43L67.4381 24.43L67.4381 19.07C67.4381 18.39 67.4048 17.8033 67.3381 17.31C67.2848 16.8033 67.1648 16.39 66.9781 16.07C66.8048 15.7367 66.5515 15.49 66.2181 15.33C65.8848 15.1567 65.4515 15.07 64.9181 15.07C64.5181 15.07 64.1515 15.11 63.8181 15.19C63.4981 15.2567 63.2181 15.3433 62.9781 15.45C62.7381 15.5567 62.5381 15.6633 62.3781 15.77C62.2315 15.8767 62.1248 15.9567 62.0581 16.01C62.1781 16.3567 62.2648 16.75 62.3181 17.19C62.3848 17.6167 62.4181 18.07 62.4181 18.55L62.4181 24.43L61.1181 24.43L61.1181 19.07C61.1181 18.39 61.0848 17.8033 61.0181 17.31C60.9648 16.8033 60.8448 16.39 60.6581 16.07C60.4715 15.7367 60.2048 15.49 59.8581 15.33C59.5248 15.1567 59.0781 15.07 58.5181 15.07C57.8915 15.07 57.3581 15.1033 56.9181 15.17C56.4915 15.2367 56.2181 15.2967 56.0981 15.35L56.0981 24.43L54.7981 24.43L54.7981 14.45ZM73.3638 22.57C73.4837 22.6633 73.6304 22.7633 73.8037 22.87C73.9904 22.9767 74.2038 23.0767 74.4437 23.17C74.6837 23.2633 74.9437 23.3433 75.2238 23.41C75.5038 23.4633 75.7971 23.49 76.1038 23.49C76.7438 23.49 77.2771 23.3833 77.7038 23.17C78.1438 22.9433 78.4971 22.6433 78.7637 22.27C79.0304 21.8833 79.2238 21.4367 79.3438 20.93C79.4638 20.41 79.5238 19.8633 79.5238 19.29C79.5238 17.93 79.1837 16.89 78.5038 16.17C77.8237 15.4367 76.9238 15.07 75.8037 15.07C75.1637 15.07 74.6438 15.1033 74.2438 15.17C73.8571 15.2233 73.5638 15.2833 73.3638 15.35L73.3638 22.57ZM73.3638 28.13L72.0638 28.13L72.0638 14.45C72.4504 14.3167 72.9437 14.19 73.5437 14.07C74.1438 13.95 74.9037 13.89 75.8237 13.89C76.5838 13.89 77.2704 14.0167 77.8838 14.27C78.5104 14.51 79.0437 14.8633 79.4837 15.33C79.9371 15.7967 80.2838 16.3633 80.5238 17.03C80.7771 17.6967 80.9037 18.45 80.9037 19.29C80.9037 20.0767 80.7971 20.8033 80.5838 21.47C80.3838 22.1233 80.0838 22.69 79.6837 23.17C79.2838 23.6367 78.7904 24.0033 78.2038 24.27C77.6304 24.5367 76.9704 24.67 76.2238 24.67C75.5437 24.67 74.9504 24.5767 74.4437 24.39C73.9504 24.19 73.5904 24.0033 73.3638 23.83L73.3638 28.13ZM86.3439 24.61C85.9039 24.5967 85.5172 24.5367 85.1839 24.43C84.8639 24.3367 84.5906 24.19 84.3639 23.99C84.1506 23.7767 83.9839 23.51 83.8639 23.19C83.7572 22.8567 83.7039 22.4433 83.7039 21.95L83.7039 9.15L85.0039 8.91L85.0039 21.91C85.0039 22.23 85.0306 22.49 85.0839 22.69C85.1506 22.8767 85.2439 23.03 85.3639 23.15C85.4839 23.2567 85.6372 23.3367 85.8239 23.39C86.0239 23.4433 86.2572 23.49 86.5239 23.53L86.3439 24.61ZM88.2016 19.25C88.2016 18.3433 88.3282 17.5567 88.5816 16.89C88.8482 16.21 89.1882 15.6433 89.6016 15.19C90.0282 14.7367 90.5082 14.4033 91.0416 14.19C91.5882 13.9633 92.1482 13.85 92.7216 13.85C93.9882 13.85 94.9949 14.2633 95.7416 15.09C96.5016 15.9167 96.8816 17.19 96.8816 18.91C96.8816 19.0167 96.8749 19.1233 96.8616 19.23C96.8616 19.3367 96.8549 19.4367 96.8416 19.53L89.5816 19.53C89.6216 20.7967 89.9349 21.77 90.5216 22.45C91.1082 23.13 92.0416 23.47 93.3216 23.47C94.0282 23.47 94.5882 23.4033 95.0016 23.27C95.4149 23.1367 95.7149 23.0233 95.9016 22.93L96.1416 24.05C95.9549 24.1567 95.6016 24.2833 95.0816 24.43C94.5749 24.5767 93.9749 24.65 93.2816 24.65C92.3749 24.65 91.6016 24.5167 90.9616 24.25C90.3216 23.9833 89.7949 23.61 89.3816 23.13C88.9682 22.65 88.6682 22.0833 88.4816 21.43C88.2949 20.7633 88.2016 20.0367 88.2016 19.25ZM95.5416 18.43C95.5149 17.35 95.2616 16.51 94.7816 15.91C94.3016 15.31 93.6216 15.01 92.7416 15.01C92.2749 15.01 91.8549 15.1033 91.4816 15.29C91.1216 15.4767 90.8016 15.73 90.5216 16.05C90.2549 16.3567 90.0416 16.7167 89.8816 17.13C89.7349 17.5433 89.6482 17.9767 89.6216 18.43L95.5416 18.43Z" fill="rgb(51,51,51)" fill-rule="nonzero" />
		<rect id="Rectangle 3" width="31.000000" height="16.000000" x="104.500000" y="9.000000" rx="8.000000" stroke="rgb(51,51,51)" stroke-width="1" />
		<circle id="Ellipse 1" cx="149.5" cy="17" r="8" stroke="rgb(51,51,51)" stroke-width="1" />
	</g>
</svg>
