<svg viewBox="0 0 140 22.1299" xmlns="http://www.w3.org/2000/svg" xmlns:xlink="http://www.w3.org/1999/xlink" width="140.000000" height="22.129883" fill="none" customFrame="#000000">
	<rect id="Frame 85" width="140.000000" height="22.000000" x="0.000000" y="0.000000" />
	<circle id="Ellipse 3" cx="8.5" cy="11" r="8" stroke="rgb(255,255,255)" stroke-width="1" />
	<path id="simple" d="M25.84 17.51C26.5867 17.51 27.2 17.39 27.68 17.15C28.1733 16.8967 28.42 16.4767 28.42 15.89C28.42 15.61 28.3733 15.37 28.28 15.17C28.2 14.97 28.06 14.79 27.86 14.63C27.66 14.47 27.3933 14.3167 27.06 14.17C26.74 14.0233 26.34 13.85 25.86 13.65C25.4733 13.49 25.1067 13.33 24.76 13.17C24.4133 12.9967 24.1067 12.8033 23.84 12.59C23.5733 12.3633 23.36 12.0967 23.2 11.79C23.04 11.4833 22.96 11.11 22.96 10.67C22.96 9.83 23.2733 9.15 23.9 8.63C24.54 8.11 25.4133 7.85 26.52 7.85C27.2267 7.85 27.8067 7.91 28.26 8.03C28.7267 8.15 29.0533 8.25667 29.24 8.35L28.94 9.51C28.78 9.43 28.5067 9.32333 28.12 9.19C27.7467 9.05667 27.1933 8.99 26.46 8.99C26.1667 8.99 25.8867 9.02333 25.62 9.09C25.3667 9.14333 25.14 9.23667 24.94 9.37C24.74 9.49 24.58 9.65 24.46 9.85C24.34 10.0367 24.28 10.27 24.28 10.55C24.28 10.83 24.3333 11.07 24.44 11.27C24.5467 11.47 24.7 11.65 24.9 11.81C25.1133 11.9567 25.3667 12.0967 25.66 12.23C25.9667 12.3633 26.3133 12.51 26.7 12.67C27.1 12.83 27.48 12.9967 27.84 13.17C28.2133 13.33 28.54 13.53 28.82 13.77C29.1 13.9967 29.3267 14.2767 29.5 14.61C29.6733 14.93 29.76 15.3367 29.76 15.83C29.76 16.7633 29.4067 17.47 28.7 17.95C28.0067 18.43 27.0533 18.67 25.84 18.67C24.9333 18.67 24.24 18.59 23.76 18.43C23.28 18.2833 22.96 18.17 22.8 18.09L23.14 16.91C23.18 16.9367 23.2667 16.9833 23.4 17.05C23.5333 17.1033 23.7133 17.17 23.94 17.25C24.1667 17.3167 24.4333 17.3767 24.74 17.43C25.06 17.4833 25.4267 17.51 25.84 17.51ZM33.5747 18.43L32.2747 18.43L32.2747 8.09L33.5747 8.09L33.5747 18.43ZM33.8747 4.97C33.8747 5.27667 33.7814 5.52333 33.5947 5.71C33.408 5.88333 33.1814 5.97 32.9147 5.97C32.648 5.97 32.4214 5.88333 32.2347 5.71C32.048 5.52333 31.9547 5.27667 31.9547 4.97C31.9547 4.66333 32.048 4.42333 32.2347 4.25C32.4214 4.06333 32.648 3.97 32.9147 3.97C33.1814 3.97 33.408 4.06333 33.5947 4.25C33.7814 4.42333 33.8747 4.66333 33.8747 4.97ZM37.0208 8.45C37.4074 8.34333 37.9074 8.22333 38.5208 8.09C39.1474 7.95667 39.9541 7.89 40.9408 7.89C42.2474 7.89 43.1941 8.27 43.7808 9.03C43.8475 8.97667 43.9741 8.89 44.1608 8.77C44.3608 8.63667 44.6074 8.50333 44.9008 8.37C45.1941 8.23667 45.5341 8.12333 45.9208 8.03C46.3208 7.93667 46.7608 7.89 47.2408 7.89C48.0275 7.89 48.6608 8.01 49.1408 8.25C49.6341 8.47667 50.0141 8.80333 50.2808 9.23C50.5474 9.64333 50.7274 10.1433 50.8208 10.73C50.9141 11.3167 50.9608 11.9567 50.9608 12.65L50.9608 18.43L49.6608 18.43L49.6608 13.07C49.6608 12.39 49.6274 11.8033 49.5608 11.31C49.5075 10.8033 49.3874 10.39 49.2008 10.07C49.0275 9.73667 48.7741 9.49 48.4408 9.33C48.1074 9.15667 47.6741 9.07 47.1408 9.07C46.7408 9.07 46.3741 9.11 46.0408 9.19C45.7208 9.25667 45.4408 9.34333 45.2008 9.45C44.9608 9.55667 44.7608 9.66333 44.6008 9.77C44.4541 9.87667 44.3475 9.95667 44.2808 10.01C44.4008 10.3567 44.4874 10.75 44.5408 11.19C44.6074 11.6167 44.6408 12.07 44.6408 12.55L44.6408 18.43L43.3408 18.43L43.3408 13.07C43.3408 12.39 43.3074 11.8033 43.2408 11.31C43.1874 10.8033 43.0674 10.39 42.8808 10.07C42.6941 9.73667 42.4274 9.49 42.0808 9.33C41.7474 9.15667 41.3008 9.07 40.7408 9.07C40.1141 9.07 39.5808 9.10333 39.1408 9.17C38.7141 9.23667 38.4408 9.29667 38.3208 9.35L38.3208 18.43L37.0208 18.43L37.0208 8.45ZM55.5864 16.57C55.7064 16.6633 55.8531 16.7633 56.0264 16.87C56.2131 16.9767 56.4264 17.0767 56.6664 17.17C56.9064 17.2633 57.1664 17.3433 57.4464 17.41C57.7264 17.4633 58.0197 17.49 58.3264 17.49C58.9664 17.49 59.4997 17.3833 59.9264 17.17C60.3664 16.9433 60.7197 16.6433 60.9864 16.27C61.2531 15.8833 61.4464 15.4367 61.5664 14.93C61.6864 14.41 61.7464 13.8633 61.7464 13.29C61.7464 11.93 61.4064 10.89 60.7264 10.17C60.0464 9.43667 59.1464 9.07 58.0264 9.07C57.3864 9.07 56.8664 9.10333 56.4664 9.17C56.0797 9.22333 55.7864 9.28333 55.5864 9.35L55.5864 16.57ZM55.5864 22.13L54.2864 22.13L54.2864 8.45C54.6731 8.31667 55.1664 8.19 55.7664 8.07C56.3664 7.95 57.1264 7.89 58.0464 7.89C58.8064 7.89 59.4931 8.01667 60.1064 8.27C60.7331 8.51 61.2664 8.86333 61.7064 9.33C62.1597 9.79667 62.5064 10.3633 62.7464 11.03C62.9997 11.6967 63.1264 12.45 63.1264 13.29C63.1264 14.0767 63.0197 14.8033 62.8064 15.47C62.6064 16.1233 62.3064 16.69 61.9064 17.17C61.5064 17.6367 61.0131 18.0033 60.4264 18.27C59.8531 18.5367 59.1931 18.67 58.4464 18.67C57.7664 18.67 57.1731 18.5767 56.6664 18.39C56.1731 18.19 55.8131 18.0033 55.5864 17.83L55.5864 22.13ZM68.5666 18.61C68.1266 18.5967 67.7399 18.5367 67.4066 18.43C67.0866 18.3367 66.8132 18.19 66.5866 17.99C66.3732 17.7767 66.2066 17.51 66.0866 17.19C65.9799 16.8567 65.9266 16.4433 65.9266 15.95L65.9266 3.15L67.2266 2.91L67.2266 15.91C67.2266 16.23 67.2532 16.49 67.3066 16.69C67.3732 16.8767 67.4666 17.03 67.5866 17.15C67.7066 17.2567 67.8599 17.3367 68.0466 17.39C68.2466 17.4433 68.4799 17.49 68.7466 17.53L68.5666 18.61ZM70.4242 13.25C70.4242 12.3433 70.5509 11.5567 70.8042 10.89C71.0709 10.21 71.4109 9.64333 71.8242 9.19C72.2509 8.73667 72.7309 8.40333 73.2642 8.19C73.8109 7.96333 74.3709 7.85 74.9442 7.85C76.2109 7.85 77.2176 8.26333 77.9642 9.09C78.7242 9.91667 79.1042 11.19 79.1042 12.91C79.1042 13.0167 79.0975 13.1233 79.0842 13.23C79.0842 13.3367 79.0776 13.4367 79.0642 13.53L71.8042 13.53C71.8442 14.7967 72.1575 15.77 72.7442 16.45C73.3309 17.13 74.2642 17.47 75.5442 17.47C76.2509 17.47 76.8109 17.4033 77.2242 17.27C77.6376 17.1367 77.9376 17.0233 78.1242 16.93L78.3642 18.05C78.1776 18.1567 77.8242 18.2833 77.3042 18.43C76.7976 18.5767 76.1976 18.65 75.5042 18.65C74.5975 18.65 73.8242 18.5167 73.1842 18.25C72.5442 17.9833 72.0175 17.61 71.6042 17.13C71.1909 16.65 70.8909 16.0833 70.7042 15.43C70.5175 14.7633 70.4242 14.0367 70.4242 13.25ZM77.7642 12.43C77.7375 11.35 77.4842 10.51 77.0042 9.91C76.5242 9.31 75.8442 9.01 74.9642 9.01C74.4976 9.01 74.0776 9.10333 73.7042 9.29C73.3442 9.47667 73.0242 9.73 72.7442 10.05C72.4776 10.3567 72.2642 10.7167 72.1042 11.13C71.9576 11.5433 71.8709 11.9767 71.8442 12.43L77.7642 12.43Z" fill="rgb(255,255,255)" fill-rule="nonzero" />
	<rect id="Rectangle 3" width="31.000000" height="16.000000" x="86.500000" y="3.000000" rx="8.000000" stroke="rgb(255,255,255)" stroke-width="1" />
	<circle id="Ellipse 1" cx="131.5" cy="11" r="8" stroke="rgb(255,255,255)" stroke-width="1" />
</svg>
